HIERARCHY
ROOT joint_Root
{
	OFFSET 0.0 0.0 0.0
	CHANNELS 6 Xposition Yposition Zposition Zrotation Xrotation Yrotation 
	JOINT Hips
	{
		OFFSET 4.5925 91.4895 -427.239
		CHANNELS 6 Xposition Yposition Zposition Zrotation Xrotation Yrotation 
		JOINT Spine
		{
			OFFSET 15.7357 0.0 0.0
			CHANNELS 6 Xposition Yposition Zposition Zrotation Xrotation Yrotation 
			JOINT Chest
			{
				OFFSET 8.98455 -0.406207 0.0
				CHANNELS 6 Xposition Yposition Zposition Zrotation Xrotation Yrotation 
				JOINT Neck
				{
					OFFSET 16.3773 0.0 0.0
					CHANNELS 6 Xposition Yposition Zposition Zrotation Xrotation Yrotation 
					JOINT Head
					{
						OFFSET 6.45672 0.0 0.0
						CHANNELS 6 Xposition Yposition Zposition Zrotation Xrotation Yrotation 
						End Site
						{
							OFFSET 0.0 0.0 0.0
						}
					}
				}
				JOINT Shoulder_L
				{
					OFFSET 12.9942 -0.242716 4.98039
					CHANNELS 6 Xposition Yposition Zposition Zrotation Xrotation Yrotation 
					JOINT UpperArm_L
					{
						OFFSET 5.34809 0.0 0.0
						CHANNELS 6 Xposition Yposition Zposition Zrotation Xrotation Yrotation 
						JOINT LowerArm_L
						{
							OFFSET 24.3286 1.87007e-05 0.0
							CHANNELS 6 Xposition Yposition Zposition Zrotation Xrotation Yrotation 
							JOINT Hand_L
							{
								OFFSET 22.2916 0.0 0.0
								CHANNELS 6 Xposition Yposition Zposition Zrotation Xrotation Yrotation 
								End Site
								{
									OFFSET 0.0 0.0 0.0
								}
							}
						}
					}
				}
				JOINT Shoulder_R
				{
					OFFSET 12.9945 -0.242716 -4.98039
					CHANNELS 6 Xposition Yposition Zposition Zrotation Xrotation Yrotation 
					JOINT UpperArm_R
					{
						OFFSET -5.34813 0.0 0.0
						CHANNELS 6 Xposition Yposition Zposition Zrotation Xrotation Yrotation 
						JOINT LowerArm_R
						{
							OFFSET -24.3289 0.000322201 0.0
							CHANNELS 6 Xposition Yposition Zposition Zrotation Xrotation Yrotation 
							JOINT Hand_R
							{
								OFFSET -22.2915 -0.000108084 0.0
								CHANNELS 6 Xposition Yposition Zposition Zrotation Xrotation Yrotation 
								End Site
								{
									OFFSET 0.0 0.0 0.0
								}
							}
						}
					}
				}
			}
		}
		JOINT UpperLeg_L
		{
			OFFSET -2.19248 -6.46944 0.0
			CHANNELS 6 Xposition Yposition Zposition Zrotation Xrotation Yrotation 
			JOINT LowerLeg_L
			{
				OFFSET 39.0811 0.0 -1.23785e-05
				CHANNELS 6 Xposition Yposition Zposition Zrotation Xrotation Yrotation 
				JOINT Foot_L
				{
					OFFSET 40.9854 0.0 -1.26872e-05
					CHANNELS 6 Xposition Yposition Zposition Zrotation Xrotation Yrotation 
					JOINT Toes_L
					{
						OFFSET 11.7543 0.0 0.0
						CHANNELS 6 Xposition Yposition Zposition Zrotation Xrotation Yrotation 
						End Site
						{
							OFFSET 0.0 0.0 0.0
						}
					}
				}
			}
		}
		JOINT UpperLeg_R
		{
			OFFSET -2.19251 6.46944 0.0
			CHANNELS 6 Xposition Yposition Zposition Zrotation Xrotation Yrotation 
			JOINT LowerLeg_R
			{
				OFFSET -39.0811 -0.00228153 -0.0401928
				CHANNELS 6 Xposition Yposition Zposition Zrotation Xrotation Yrotation 
				JOINT Foot_R
				{
					OFFSET -40.9854 0.0 0.0
					CHANNELS 6 Xposition Yposition Zposition Zrotation Xrotation Yrotation 
					JOINT Toes_R
					{
						OFFSET -11.7543 0.0 0.0
						CHANNELS 6 Xposition Yposition Zposition Zrotation Xrotation Yrotation 
						End Site
						{
							OFFSET 0.0 0.0 0.0
						}
					}
				}
			}
		}
	}
}
MOTION
Frames:	9
Frame Time:	0.0333333
0.000000 0.000000 0.000000 0.000000 0.000000 -0.000000 -4.288770 90.422600 -0.376613 90.637500 -0.844299 14.602600 15.735700 0.000005 -0.000001 85.127300 83.737200 -85.129400 8.984550 -0.406207 -0.000000 4.714900 -1.061930 0.039549 16.377300 -0.000001 -0.000001 31.923500 -2.808300 3.772170 6.456720 -0.000001 -0.000000 16.265300 -3.533030 2.723510 12.994200 -0.242716 4.980390 -86.523500 -8.083400 -66.633700 5.348090 -0.000007 -0.000001 -63.811900 -45.724900 -96.758900 24.328600 0.000019 0.000005 15.979100 11.691300 -54.714400 22.291600 -0.000001 0.000005 22.022000 5.293980 0.240542 12.994500 -0.242716 -4.980390 91.142400 -3.936500 -73.802200 -5.348130 -0.000001 -0.000004 -54.327200 -39.152700 -86.102600 -24.328900 0.000322 -0.000009 3.712970 1.579500 -66.994900 -22.291500 -0.000108 -0.000004 31.483600 5.482410 -5.840950 -2.192480 -6.469440 -0.000000 -171.811000 -12.447300 4.022280 39.081100 -0.000007 -0.000012 -0.245740 0.405956 31.188500 40.985400 -0.000006 -0.000013 -1.843490 7.597710 -69.656500 11.754300 -0.000000 0.000003 -0.000088 -0.000919 -16.612900 -2.192510 6.469440 -0.000001 172.868000 23.509800 -173.522000 -39.081100 -0.002282 -0.040193 -0.199688 0.329170 31.660800 -40.985400 0.000008 0.000006 5.499480 10.638800 -73.189900 -11.754300 -0.000006 -0.000006 -0.002445 -0.034160 -17.962200
0.000000 0.000000 0.000000 0.000000 0.000000 -0.000000 -4.308790 90.428300 -0.439377 90.691700 -0.764769 14.591200 15.735700 0.000005 -0.000001 85.263300 83.741200 -85.281800 8.984550 -0.406207 -0.000000 4.709320 -1.031280 0.005369 16.377300 -0.000001 -0.000001 32.126700 -2.806330 3.844110 6.456720 -0.000001 -0.000000 16.534100 -3.558110 2.773020 12.994200 -0.242716 4.980390 -86.498200 -8.126730 -66.592700 5.348090 -0.000007 -0.000001 -64.097900 -45.935200 -96.996800 24.328600 0.000019 0.000005 15.875200 11.659000 -54.602400 22.291600 -0.000001 0.000005 22.169500 5.293610 0.250665 12.994500 -0.242716 -4.980390 91.169800 -4.003740 -73.697700 -5.348130 -0.000001 -0.000004 -54.716300 -39.292900 -86.442400 -24.328900 0.000322 -0.000009 3.790290 1.608610 -67.044500 -22.291500 -0.000108 -0.000004 31.643000 5.481780 -5.816840 -2.192480 -6.469440 -0.000000 -171.872000 -12.446900 3.970970 39.081100 -0.000007 -0.000012 -0.243442 0.402716 31.153400 40.985400 -0.000006 -0.000013 -1.834990 7.648240 -69.584800 11.754300 -0.000000 0.000003 -0.000083 -0.000879 -16.611400 -2.192510 6.469440 -0.000001 172.871000 23.451500 -173.596000 -39.081100 -0.002282 -0.040193 -0.201803 0.332275 31.685800 -40.985400 0.000008 0.000006 5.477220 10.510300 -73.162100 -11.754300 -0.000006 -0.000006 -0.002610 -0.036114 -18.041700
0.000000 0.000000 0.000000 0.000000 0.000000 -0.000000 -4.340140 90.422500 -0.479402 90.707000 -0.648627 14.667500 15.735700 0.000005 -0.000001 85.245600 83.709400 -85.268500 8.984550 -0.406207 -0.000000 4.772270 -1.040230 -0.002442 16.377300 -0.000001 -0.000001 32.388700 -2.804500 3.845030 6.456720 -0.000001 -0.000000 16.704300 -3.547880 2.880060 12.994200 -0.242716 4.980390 -86.455900 -8.195640 -66.516500 5.348090 -0.000007 -0.000001 -64.478600 -46.098300 -97.280300 24.328600 0.000019 0.000005 15.884100 11.661700 -54.612100 22.291600 -0.000001 0.000005 22.154600 5.291820 0.300684 12.994500 -0.242716 -4.980390 91.196500 -4.072060 -73.610300 -5.348130 -0.000001 -0.000004 -55.083200 -39.461000 -86.759700 -24.328900 0.000322 -0.000009 3.742250 1.584020 -67.098200 -22.291500 -0.000108 -0.000004 31.656900 5.481750 -5.815620 -2.192480 -6.469440 -0.000000 -171.857000 -12.404600 3.989200 39.081100 -0.000007 -0.000012 -0.244517 0.404079 31.179400 40.985400 -0.000006 -0.000013 -1.836120 7.720020 -69.553900 11.754300 -0.000000 0.000003 -0.000080 -0.000848 -16.610200 -2.192510 6.469440 -0.000001 172.879000 23.427000 -173.567000 -39.081100 -0.002282 -0.040193 -0.202819 0.333356 31.729200 -40.985400 0.000008 0.000006 5.471980 10.373300 -73.160500 -11.754300 -0.000006 -0.000006 -0.002693 -0.037076 -18.080800
0.000000 0.000000 0.000000 0.000000 0.000000 -0.000000 -4.367630 90.427500 -0.520958 90.740500 -0.519826 14.683400 15.735700 0.000005 -0.000001 85.229100 83.694900 -85.260600 8.984550 -0.406207 -0.000000 4.800790 -1.046020 -0.019134 16.377300 -0.000001 -0.000001 32.701900 -2.801130 3.818380 6.456720 -0.000001 -0.000000 16.874000 -3.547050 3.002480 12.994200 -0.242716 4.980390 -86.427100 -8.230990 -66.435700 5.348090 -0.000007 -0.000001 -64.845900 -46.200300 -97.615100 24.328600 0.000019 0.000005 15.994000 11.739000 -54.632400 22.291600 -0.000001 0.000005 22.106300 5.288990 0.378917 12.994500 -0.242716 -4.980390 91.220700 -4.135710 -73.539800 -5.348130 -0.000001 -0.000004 -55.403100 -39.652800 -87.030300 -24.328900 0.000322 -0.000009 3.725070 1.569260 -67.195500 -22.291500 -0.000108 -0.000004 31.657700 5.480860 -5.781380 -2.192480 -6.469440 -0.000000 -171.894000 -12.338500 3.965700 39.081100 -0.000007 -0.000012 -0.245375 0.406024 31.146500 40.985400 -0.000006 -0.000013 -1.837090 7.777780 -69.490400 11.754300 -0.000000 0.000003 -0.000076 -0.000810 -16.608800 -2.192510 6.469440 -0.000001 172.883000 23.436100 -173.573000 -39.081100 -0.002282 -0.040193 -0.199902 0.328662 31.727300 -40.985400 0.000008 0.000006 5.454460 10.232600 -73.138900 -11.754300 -0.000006 -0.000006 -0.002576 -0.035711 -18.025300
0.000000 0.000000 0.000000 0.000000 0.000000 -0.000000 -4.394250 90.422900 -0.563595 90.755400 -0.396068 14.674900 15.735700 0.000005 -0.000001 85.258000 83.705500 -85.296000 8.984550 -0.406207 -0.000000 4.780230 -1.037780 -0.032567 16.377300 -0.000001 -0.000001 32.897500 -2.804050 3.857590 6.456720 -0.000001 -0.000000 17.197200 -3.560190 3.013750 12.994200 -0.242716 4.980390 -86.384700 -8.323050 -66.419300 5.348090 -0.000007 -0.000001 -65.181000 -46.265600 -97.862400 24.328600 0.000019 0.000005 15.927200 11.672100 -54.665700 22.291600 -0.000001 0.000005 22.246500 5.290770 0.329732 12.994500 -0.242716 -4.980390 91.248600 -4.209940 -73.464300 -5.348130 -0.000001 -0.000004 -55.591900 -39.821100 -87.195100 -24.328900 0.000322 -0.000009 3.714740 1.563430 -67.214700 -22.291500 -0.000108 -0.000004 31.676700 5.482170 -5.831760 -2.192480 -6.469440 -0.000000 -171.921000 -12.275300 3.877650 39.081100 -0.000007 -0.000012 -0.243008 0.401563 31.180900 40.985400 -0.000006 -0.000013 -1.828020 7.851430 -69.455500 11.754300 -0.000000 0.000003 -0.000087 -0.000914 -16.612700 -2.192510 6.469440 -0.000001 172.909000 23.433600 -173.633000 -39.081100 -0.002282 -0.040193 -0.202802 0.332778 31.771500 -40.985400 0.000008 0.000006 5.450630 10.132500 -73.136600 -11.754300 -0.000006 -0.000006 -0.002697 -0.037123 -18.082800
0.000000 0.000000 0.000000 0.000000 0.000000 -0.000000 -4.414070 90.424300 -0.584040 90.792000 -0.296124 14.719400 15.735700 0.000005 -0.000001 85.372600 83.685800 -85.429600 8.984550 -0.406207 -0.000000 4.821350 -1.015390 -0.071150 16.377300 -0.000001 -0.000001 33.152700 -2.815010 3.775230 6.456720 -0.000001 -0.000000 17.388600 -3.503380 3.169150 12.994200 -0.242716 4.980390 -86.357600 -8.375730 -66.393700 5.348090 -0.000007 -0.000001 -65.441500 -46.374200 -98.178100 24.328600 0.000019 0.000005 15.922300 11.671000 -54.659400 22.291600 -0.000001 0.000005 22.352700 5.287470 0.421052 12.994500 -0.242716 -4.980390 91.279400 -4.295890 -73.398600 -5.348130 -0.000001 -0.000004 -55.793500 -39.997900 -87.350100 -24.328900 0.000322 -0.000009 3.647980 1.531670 -67.262500 -22.291500 -0.000108 -0.000004 31.647600 5.480470 -5.766400 -2.192480 -6.469440 -0.000000 -171.948000 -12.217600 3.908220 39.081100 -0.000007 -0.000012 -0.244015 0.403705 31.150800 40.985400 -0.000006 -0.000013 -1.834620 7.890910 -69.416400 11.754300 -0.000000 0.000003 -0.000079 -0.000843 -16.610100 -2.192510 6.469440 -0.000001 172.879000 23.464200 -173.592000 -39.081100 -0.002282 -0.040193 -0.197587 0.324279 31.777700 -40.985400 0.000008 0.000006 5.443180 10.032900 -73.136500 -11.754300 -0.000006 -0.000006 -0.002601 -0.036005 -18.037300
0.000000 0.000000 0.000000 0.000000 0.000000 -0.000000 -4.441630 90.421500 -0.598155 90.798100 -0.242069 14.752600 15.735700 0.000005 -0.000001 85.401900 83.684800 -85.456200 8.984550 -0.406207 -0.000000 4.823780 -1.009200 -0.065905 16.377300 -0.000001 -0.000001 33.410300 -2.798360 3.698230 6.456720 -0.000001 -0.000000 17.591200 -3.454980 3.141650 12.994200 -0.242716 4.980390 -86.323200 -8.426630 -66.322100 5.348090 -0.000007 -0.000001 -65.594600 -46.485800 -98.355300 24.328600 0.000019 0.000005 15.901600 11.668100 -54.628800 22.291600 -0.000001 0.000005 22.420800 5.290250 0.344374 12.994500 -0.242716 -4.980390 91.317800 -4.410830 -73.347800 -5.348130 -0.000001 -0.000004 -55.955100 -40.066600 -87.539100 -24.328900 0.000322 -0.000009 3.700670 1.556450 -67.228500 -22.291500 -0.000108 -0.000004 31.663300 5.479880 -5.744100 -2.192480 -6.469440 -0.000000 -171.928000 -12.210300 3.913860 39.081100 -0.000007 -0.000012 -0.245198 0.405509 31.160400 40.985400 -0.000006 -0.000013 -1.839150 7.943020 -69.395800 11.754300 -0.000000 0.000003 -0.000085 -0.000895 -16.612000 -2.192510 6.469440 -0.000001 172.862000 23.492300 -173.562000 -39.081100 -0.002282 -0.040193 -0.201372 0.330198 31.792600 -40.985400 0.000008 0.000006 5.455200 10.018600 -73.144500 -11.754300 -0.000006 -0.000006 -0.002813 -0.038472 -18.137700
0.000000 0.000000 0.000000 0.000000 0.000000 -0.000000 -4.473670 90.414800 -0.608728 90.806700 -0.164788 14.799700 15.735700 0.000005 -0.000001 85.412500 83.679400 -85.470500 8.984550 -0.406207 -0.000000 4.834660 -1.007640 -0.073482 16.377300 -0.000001 -0.000001 33.603100 -2.788740 3.663940 6.456720 -0.000001 -0.000000 17.857800 -3.404090 3.035330 12.994200 -0.242716 4.980390 -86.285200 -8.497040 -66.279000 5.348090 -0.000007 -0.000001 -65.720900 -46.621500 -98.521900 24.328600 0.000019 0.000005 15.983100 11.740200 -54.610200 22.291600 -0.000001 0.000005 22.527300 5.291650 0.305132 12.994500 -0.242716 -4.980390 91.358700 -4.528260 -73.279000 -5.348130 -0.000001 -0.000004 -56.082200 -40.102700 -87.693900 -24.328900 0.000322 -0.000009 3.737760 1.573650 -67.208100 -22.291500 -0.000108 -0.000004 31.682000 5.479100 -5.714380 -2.192480 -6.469440 -0.000000 -171.934000 -12.135300 3.929000 39.081100 -0.000007 -0.000012 -0.243075 0.401590 31.186200 40.985400 -0.000006 -0.000013 -1.854600 7.939300 -69.395000 11.754300 -0.000000 0.000003 -0.000079 -0.000840 -16.609900 -2.192510 6.469440 -0.000001 172.847000 23.552500 -173.523000 -39.081100 -0.002282 -0.040193 -0.198798 0.325665 31.822500 -40.985400 0.000008 0.000006 5.480280 9.990140 -73.165300 -11.754300 -0.000006 -0.000006 -0.002727 -0.037473 -18.097000
0.000000 0.000000 0.000000 0.000000 0.000000 -0.000000 -4.505840 90.411500 -0.610791 90.809700 -0.143277 14.817900 15.735700 0.000005 -0.000001 85.541100 83.683000 -85.603100 8.984550 -0.406207 -0.000000 4.829820 -0.978750 -0.082626 16.377300 -0.000001 -0.000001 33.859500 -2.776080 3.571030 6.456720 -0.000001 -0.000000 17.981300 -3.389620 3.007740 12.994200 -0.242716 4.980390 -86.244200 -8.566440 -66.217000 5.348090 -0.000007 -0.000001 -66.000600 -46.729800 -98.773300 24.328600 0.000019 0.000005 15.997700 11.724100 -54.672900 22.291600 -0.000001 0.000005 22.374300 5.290190 0.346288 12.994500 -0.242716 -4.980390 91.396600 -4.620950 -73.162700 -5.348130 -0.000001 -0.000004 -56.196300 -40.095700 -87.884500 -24.328900 0.000322 -0.000009 3.724150 1.570170 -67.178600 -22.291500 -0.000108 -0.000004 31.633300 5.479520 -5.730060 -2.192480 -6.469440 -0.000000 -171.908000 -12.114700 3.940380 39.081100 -0.000007 -0.000012 -0.244977 0.404724 31.186700 40.985400 -0.000006 -0.000013 -1.875580 7.968450 -69.385200 11.754300 -0.000000 0.000003 -0.000089 -0.000934 -16.613500 -2.192510 6.469440 -0.000001 172.879000 23.512600 -173.512000 -39.081100 -0.002282 -0.040193 -0.199190 0.326202 31.829900 -40.985400 0.000008 0.000006 5.488790 9.932850 -73.175800 -11.754300 -0.000006 -0.000006 -0.002578 -0.035735 -18.026300
